<?xml version="1.0" encoding="utf-8"?>
<!-- Generator: Adobe Illustrator 26.0.2, SVG Export Plug-In . SVG Version: 6.00 Build 0)  -->
<svg version="1.1" id="Слой_1" xmlns="http://www.w3.org/2000/svg" xmlns:xlink="http://www.w3.org/1999/xlink" x="0px" y="0px"
	 viewBox="0 0 50 50" style="enable-background:new 0 0 50 50;" xml:space="preserve">
<style type="text/css">
	.st0{fill:#F7931A;}
	.st1{fill:#FFFFFF;}
</style>
<g transform="translate(0.00630876,-0.00301984)">
	<path class="st0" d="M49.2,31.1c-3.3,13.4-16.9,21.5-30.3,18.2C5.6,45.9-2.6,32.4,0.7,19C4.1,5.6,17.6-2.6,31,0.8
		C44.4,4.1,52.6,17.7,49.2,31.1z"/>
	<path class="st1" d="M36,21.4c0.5-3.3-2-5.1-5.5-6.3l1.1-4.5l-2.7-0.7l-1.1,4.4c-0.7-0.2-1.5-0.3-2.2-0.5l1.1-4.4L24,8.7l-1.1,4.5
		c-0.6-0.1-1.2-0.3-1.8-0.4l0,0l-3.8-0.9l-0.7,2.9c0,0,2,0.5,2,0.5c1.1,0.3,1.3,1,1.3,1.6L18.6,22c0.1,0,0.2,0,0.3,0.1
		c-0.1,0-0.2,0-0.3-0.1l-1.8,7.2c-0.1,0.3-0.5,0.8-1.3,0.7c0,0-2-0.5-2-0.5l-1.4,3.1l3.6,0.9c0.7,0.2,1.3,0.3,2,0.5l-1.1,4.6
		l2.7,0.7l1.1-4.5c0.7,0.2,1.5,0.4,2.2,0.6l-1.1,4.5l2.7,0.7l1.1-4.5c4.7,0.9,8.2,0.5,9.7-3.7c1.2-3.4-0.1-5.4-2.5-6.7
		C34.3,25.1,35.7,23.9,36,21.4z M29.7,30.2c-0.8,3.4-6.6,1.6-8.4,1.1l1.5-6C24.7,25.8,30.6,26.7,29.7,30.2z M30.6,21.4
		c-0.8,3.1-5.5,1.5-7.1,1.1l1.4-5.5C26.4,17.4,31.4,18.2,30.6,21.4z"/>
</g>
</svg>
