<?xml version="1.0" encoding="utf-8"?>
<!-- Generator: Adobe Illustrator 26.0.2, SVG Export Plug-In . SVG Version: 6.00 Build 0)  -->
<svg version="1.1" id="Слой_1" xmlns="http://www.w3.org/2000/svg" xmlns:xlink="http://www.w3.org/1999/xlink" x="0px" y="0px"
	 viewBox="0 0 50 50" style="enable-background:new 0 0 50 50;" xml:space="preserve">
<style type="text/css">
	.st0{fill:#E68722;}
	.st1{fill:#6D6D6D;}
	.st2{fill:#222222;}
	.st3{fill:#FFE266;}
	.st4{opacity:0.5;fill:#383639;stroke:#E2A02B;stroke-width:1.7212;stroke-miterlimit:10;}
	.st5{fill:#FFFFFF;}
</style>
<g>
	<circle class="st0" cx="25" cy="25" r="25"/>
	<path class="st1" d="M9,12.5h32.3c0.5,0,0.8,0.4,0.8,0.9l0,0.7c0-0.5-0.4-0.8-0.8-0.8L9,13.2c-0.5,0-0.8,0.4-0.8,0.8l0-0.7
		C8.2,12.9,8.5,12.5,9,12.5z"/>
	<path class="st2" d="M41.3,13.2c0.5,0,0.8,0.4,0.8,0.8l0,19.1c0,0.5-0.4,0.8-0.8,0.8L9,34c-0.5,0-0.8-0.4-0.8-0.8l0-19.1
		c0-0.5,0.4-0.8,0.8-0.8L41.3,13.2z"/>
	<path class="st3" d="M11.8,23.1c-0.2,0-0.5-0.1-0.6-0.3C11,22.6,11,22.4,11,22.2l0-4.6c0-0.5,0.4-0.9,0.9-0.9l4.6,0
		c0.5,0,0.9,0.4,0.9,0.9l0,4.6c0,0.5-0.4,0.9-0.9,0.9L11.8,23.1z"/>
	<path class="st1" d="M11.8,16.9L11.8,16.9l4.6,0c0.4,0,0.7,0.3,0.7,0.7l0,4.6c0,0.4-0.3,0.7-0.7,0.7h0l-4.6,0
		c-0.4,0-0.7-0.3-0.7-0.7l0-4.6C11.1,17.2,11.5,16.9,11.8,16.9L11.8,16.9z M11.8,16.5L11.8,16.5L11.8,16.5L11.8,16.5
		c-0.6,0-1.1,0.5-1.1,1.1l0,4.6c0,0.6,0.5,1.1,1.1,1.1l4.6,0c0.6,0,1.1-0.5,1.1-1.1l0-4.6c0-0.3-0.1-0.5-0.3-0.7
		c-0.2-0.2-0.5-0.3-0.7-0.3L11.8,16.5L11.8,16.5z"/>
	<path class="st4" d="M14.9,16.9l0,1.8L14.9,16.9z"/>
	<path class="st4" d="M17.2,18.7l-6,0L17.2,18.7z"/>
	<path class="st4" d="M17.2,21.1l-6,0L17.2,21.1z"/>
	<path class="st4" d="M14.9,21.1l0,1.8L14.9,21.1z"/>
	<path class="st4" d="M13.4,21.1l0,1.8L13.4,21.1z"/>
	<path class="st4" d="M13.4,16.9l0,1.8L13.4,16.9z"/>
	
		<rect x="34.4" y="25.1" transform="matrix(1.110434e-03 -1 1 1.110434e-03 7.5391 63.4524)" class="st5" width="2.3" height="5.8"/>
	<rect x="27.3" y="25" transform="matrix(1.007587e-03 -1 1 1.007587e-03 0.4785 56.3691)" class="st5" width="2.3" height="5.8"/>
	<rect x="20.2" y="25" transform="matrix(1.181717e-03 -1 1 1.181717e-03 -6.5906 49.277)" class="st5" width="2.3" height="5.8"/>
	
		<rect x="13.1" y="25" transform="matrix(1.078399e-03 -1 1 1.078399e-03 -13.6525 42.1929)" class="st5" width="2.3" height="5.8"/>
	
		<rect x="15.5" y="26.4" transform="matrix(1.034164e-03 -1 1 1.034164e-03 -15.1064 46.919)" class="st0" width="0.9" height="9.3"/>
	<rect x="21.4" y="30.6" class="st0" width="4" height="0.9"/>
	<g>
		<path class="st5" d="M10.2,36.9H12c0.3,0,0.6,0.1,0.8,0.2c0.2,0.1,0.3,0.3,0.3,0.6c0,0.2,0,0.3-0.1,0.4c-0.1,0.1-0.2,0.2-0.4,0.3
			v0c0.2,0,0.4,0.1,0.5,0.3c0.1,0.1,0.2,0.3,0.2,0.5c0,0.1,0,0.2-0.1,0.3c-0.1,0.1-0.1,0.2-0.2,0.3s-0.3,0.1-0.4,0.2
			c-0.2,0-0.4,0.1-0.6,0.1h-1.7V36.9z M10.8,38.2h1.1c0.2,0,0.3,0,0.4-0.1c0.1-0.1,0.2-0.2,0.2-0.3c0-0.2,0-0.3-0.1-0.3
			s-0.2-0.1-0.4-0.1h-1.1V38.2z M10.8,39.6H12c0.2,0,0.4,0,0.5-0.1s0.2-0.2,0.2-0.4c0-0.2-0.1-0.3-0.2-0.4s-0.3-0.1-0.5-0.1h-1.1
			V39.6z"/>
		<path class="st5" d="M14.8,36.9h0.7l1.4,3.1h-0.7l-0.3-0.8h-1.5l-0.3,0.8h-0.7L14.8,36.9z M14.6,38.8h1.1l-0.6-1.4h0L14.6,38.8z"
			/>
		<path class="st5" d="M17.3,36.9h0.7l1.7,2.3h0v-2.3h0.6v3.1h-0.7l-1.7-2.3h0v2.3h-0.6V36.9z"/>
		<path class="st5" d="M21,36.9h0.6v1.4l1.6-1.4h0.8l-1.5,1.3l1.6,1.9h-0.8l-1.2-1.5L21.7,39v1.1H21V36.9z"/>
		<path class="st5" d="M28.5,37.9c0-0.1-0.1-0.2-0.1-0.3c0-0.1-0.1-0.1-0.2-0.2c-0.1-0.1-0.2-0.1-0.3-0.1c-0.1,0-0.2,0-0.4,0
			c-0.2,0-0.4,0-0.5,0.1c-0.1,0.1-0.3,0.2-0.4,0.3c-0.1,0.1-0.2,0.2-0.2,0.4c0,0.1-0.1,0.3-0.1,0.4c0,0.2,0,0.3,0.1,0.4
			c0,0.1,0.1,0.3,0.2,0.4c0.1,0.1,0.2,0.2,0.4,0.3s0.3,0.1,0.5,0.1c0.1,0,0.3,0,0.4-0.1c0.1,0,0.2-0.1,0.3-0.2
			c0.1-0.1,0.1-0.2,0.2-0.3c0-0.1,0.1-0.2,0.1-0.3h0.6c0,0.2-0.1,0.4-0.1,0.5c-0.1,0.2-0.2,0.3-0.3,0.4c-0.1,0.1-0.3,0.2-0.5,0.3
			c-0.2,0.1-0.4,0.1-0.6,0.1c-0.3,0-0.5,0-0.7-0.1s-0.4-0.2-0.6-0.4c-0.2-0.2-0.3-0.3-0.4-0.5c-0.1-0.2-0.1-0.4-0.1-0.6
			c0-0.2,0-0.4,0.1-0.6c0.1-0.2,0.2-0.4,0.4-0.5c0.2-0.1,0.3-0.3,0.6-0.4s0.5-0.1,0.7-0.1c0.2,0,0.4,0,0.6,0.1s0.3,0.1,0.5,0.2
			c0.1,0.1,0.3,0.2,0.3,0.3c0.1,0.1,0.1,0.3,0.2,0.5H28.5z"/>
		<path class="st5" d="M30.8,36.9h0.7l1.4,3.1h-0.7l-0.3-0.8h-1.5L30,40.1h-0.7L30.8,36.9z M30.5,38.8h1.1l-0.6-1.4h0L30.5,38.8z"/>
		<path class="st5" d="M33.2,36.9H35c0.4,0,0.7,0.1,0.9,0.2c0.2,0.2,0.3,0.4,0.3,0.6c0,0.2,0,0.3-0.1,0.4c-0.1,0.1-0.1,0.2-0.2,0.2
			c-0.1,0.1-0.1,0.1-0.2,0.1s-0.1,0-0.1,0.1v0c0.1,0,0.1,0,0.2,0c0.1,0,0.1,0.1,0.2,0.1c0.1,0.1,0.1,0.1,0.1,0.2s0.1,0.2,0.1,0.3
			c0,0.2,0,0.4,0,0.5s0.1,0.3,0.2,0.3h-0.7c0-0.1-0.1-0.1-0.1-0.2s0-0.2,0-0.2c0-0.1,0-0.3,0-0.4S35.5,39,35.4,39s-0.1-0.1-0.2-0.2
			s-0.2,0-0.4,0h-1v1.3h-0.6V36.9z M33.9,38.3h1.1c0.2,0,0.4,0,0.5-0.1c0.1-0.1,0.2-0.2,0.2-0.4c0-0.1,0-0.2-0.1-0.2
			s-0.1-0.1-0.1-0.1s-0.1-0.1-0.2-0.1c-0.1,0-0.2,0-0.2,0h-1.1V38.3z"/>
		<path class="st5" d="M36.9,36.9h1.5c0.3,0,0.5,0,0.7,0.1c0.2,0.1,0.4,0.2,0.5,0.3c0.1,0.1,0.2,0.3,0.3,0.5
			c0.1,0.2,0.1,0.4,0.1,0.6c0,0.2,0,0.4-0.1,0.6c-0.1,0.2-0.2,0.4-0.3,0.5c-0.1,0.1-0.3,0.3-0.5,0.3c-0.2,0.1-0.5,0.1-0.7,0.1h-1.5
			V36.9z M37.5,39.6h0.6c0.3,0,0.5,0,0.6-0.1c0.2-0.1,0.3-0.1,0.4-0.2s0.2-0.2,0.2-0.4c0-0.1,0-0.3,0-0.4c0-0.2,0-0.3,0-0.4
			c0-0.1-0.1-0.3-0.2-0.4s-0.2-0.2-0.4-0.2c-0.2-0.1-0.4-0.1-0.6-0.1h-0.6V39.6z"/>
	</g>
</g>
</svg>
