<?xml version="1.0" encoding="utf-8"?>
<!-- Generator: Adobe Illustrator 26.0.2, SVG Export Plug-In . SVG Version: 6.00 Build 0)  -->
<svg version="1.1" id="Слой_1" xmlns="http://www.w3.org/2000/svg" xmlns:xlink="http://www.w3.org/1999/xlink" x="0px" y="0px"
	 viewBox="0 0 50 50" style="enable-background:new 0 0 50 50;" xml:space="preserve">
<style type="text/css">
	.st0{fill:#E68722;}
	.st1{fill:#6D6D6D;}
	.st2{fill:#222222;}
	.st3{fill:url(#SVGID_1_);}
	.st4{opacity:0.48;}
	.st5{fill:url(#SVGID_00000033362834203224362750000005770879596317668764_);}
	.st6{opacity:0.35;fill:#FFFFFF;}
	.st7{fill:url(#SVGID_00000083054374349412765890000018151114492127571857_);}
	.st8{opacity:0.61;fill:#FFFFFF;}
	.st9{fill:#856400;}
	.st10{fill:none;}
	.st11{opacity:0.4;fill:#FFFFFF;}
	.st12{fill:#FFFFFF;}
</style>
<g>
	<circle class="st0" cx="25" cy="25" r="25"/>
	<g>
		<path class="st1" d="M39.8,13.8H10.4c-0.9,0-1.6,0.8-1.6,1.8v18.1c0,1,0.7,1.8,1.6,1.8h27c0.1,0,0.3-0.1,0.4-0.2l3.5-5.1
			c0.1-0.1,0.2-0.3,0.2-0.4V15.6C41.4,14.6,40.7,13.8,39.8,13.8z"/>
		<g>
			<path class="st1" d="M41.1,14.6c0,0.2,0.1,0.4,0.1,0.6l0.1,14.1c0,0.2,0,0.5-0.1,0.6l-3.4,5.2c-0.1,0.1-0.4,0.2-0.5,0.2h-27
				c-0.6,0-1.1-0.7-1.4-1.2c0.2,0.8,0.8,1.4,1.5,1.4h27c0.1,0,0.3-0.1,0.4-0.2l3.5-5.1c0.1-0.1,0.2-0.3,0.2-0.4V15.6
				C41.3,15.2,41.3,14.9,41.1,14.6z"/>
			<path class="st1" d="M41.1,14.6c0,0.2,0.1,0.4,0.1,0.6l0.1,14c0,0.2,0,0.5-0.1,0.6l-3.5,5.2c-0.1,0.1-0.4,0.2-0.5,0.2l-27,0
				c-0.6,0-1.1-0.6-1.4-1.2c0.2,0.8,0.8,1.3,1.6,1.3l27,0c0.1,0,0.3-0.1,0.3-0.2l3.5-5.1c0.1-0.1,0.2-0.3,0.2-0.4V15.6
				C41.3,15.2,41.3,14.9,41.1,14.6z"/>
			<path class="st1" d="M41.1,14.6c0,0.2,0.1,0.4,0.1,0.5l0.1,14c0,0.2,0,0.5-0.1,0.6L37.7,35c-0.1,0.1-0.3,0.2-0.5,0.2l-27,0
				c-0.6,0-1.1-0.6-1.4-1.1c0.2,0.8,0.8,1.3,1.6,1.3l27,0c0.1,0,0.2-0.1,0.3-0.2l3.5-5.1c0.1-0.1,0.2-0.3,0.2-0.4V15.5
				C41.3,15.2,41.3,14.9,41.1,14.6z"/>
			<path class="st1" d="M41.1,14.6c0,0.2,0.1,0.4,0.1,0.5l0.1,14c0,0.2,0,0.5-0.1,0.6l-3.5,5.2c-0.1,0.1-0.3,0.2-0.4,0.2l-27,0
				c-0.6,0-1.1-0.6-1.4-1.1c0.2,0.8,0.8,1.3,1.6,1.3l27,0c0.1,0,0.2-0.1,0.3-0.2l3.5-5.1c0.1-0.1,0.2-0.3,0.2-0.4V15.5
				C41.3,15.2,41.3,14.9,41.1,14.6z"/>
			<path class="st1" d="M41.1,14.5c0,0.2,0.1,0.3,0.1,0.5l0.1,14c0,0.2,0,0.5-0.1,0.6l-3.5,5.2c-0.1,0.1-0.3,0.2-0.4,0.2l-27,0
				c-0.6,0-1.1-0.6-1.4-1.1c0.2,0.8,0.9,1.3,1.6,1.3l27,0c0.1,0,0.2-0.1,0.3-0.2l3.5-5.1c0.1-0.1,0.2-0.3,0.2-0.4v-14
				C41.3,15.1,41.3,14.8,41.1,14.5z"/>
			<path class="st1" d="M41.1,14.5c0,0.2,0.1,0.3,0.1,0.5l0.1,14c0,0.2,0,0.5-0.1,0.6l-3.5,5.2c-0.1,0.1-0.3,0.2-0.4,0.2l-27,0
				c-0.6,0-1.2-0.6-1.4-1.1c0.2,0.8,0.9,1.2,1.6,1.2l27,0c0.1,0,0.2-0.1,0.3-0.2l3.5-5.1c0.1-0.1,0.2-0.3,0.2-0.4v-14
				C41.3,15.1,41.3,14.8,41.1,14.5z"/>
		</g>
		<path class="st2" d="M37.2,35h-27c-0.9,0-1.6-0.8-1.6-1.8V15.1c0-1,0.7-1.8,1.6-1.8h29.4c0.9,0,1.6,0.8,1.6,1.8v14.2
			c0,0.2-0.1,0.3-0.2,0.4l-3.5,5.1C37.5,35,37.4,35,37.2,35z"/>
		
			<linearGradient id="SVGID_1_" gradientUnits="userSpaceOnUse" x1="221.9606" y1="-121.6447" x2="258.6892" y2="-132.2854" gradientTransform="matrix(1 0 0 1 -215.2742 151.0198)">
			<stop  offset="0" style="stop-color:#F7B261"/>
			<stop  offset="0.244" style="stop-color:#F9CD63"/>
			<stop  offset="0.5006" style="stop-color:#FBE164"/>
			<stop  offset="0.7543" style="stop-color:#FCEE65"/>
			<stop  offset="1" style="stop-color:#FCF265"/>
		</linearGradient>
		<path class="st3" d="M34,34H14.3c-1.9,0-3.5-1.6-3.5-3.5V18.2c0-1.9,1.6-3.5,3.5-3.5H34c1.9,0,3.5,1.6,3.5,3.5v12.3
			C37.5,32.4,36,34,34,34z"/>
		<g class="st4">
			
				<linearGradient id="SVGID_00000072255014781831348780000007646233305940617618_" gradientUnits="userSpaceOnUse" x1="220.2031" y1="-127.3782" x2="257.1204" y2="-138.0736" gradientTransform="matrix(1 0 0 1 -215.2742 151.0198)">
				<stop  offset="0" style="stop-color:#F7B261"/>
				<stop  offset="0.244" style="stop-color:#F9CD63"/>
				<stop  offset="0.5006" style="stop-color:#FBE164"/>
				<stop  offset="0.7543" style="stop-color:#FCEE65"/>
				<stop  offset="1" style="stop-color:#FCF265"/>
			</linearGradient>
			<path style="fill:url(#SVGID_00000072255014781831348780000007646233305940617618_);" d="M24.7,14.7H14c-1.8,0-3.2,1.4-3.2,3.2
				v10.6l0.1-6.1L24.7,14.7z"/>
			<path class="st6" d="M37.5,17.8c0-1.8-1.4-3.2-3.2-3.2h-9.7l-13.8,7.7l-0.1,6.1v2.3c0,1.2,0.7,2.3,1.7,2.8l25.1-14V17.8z"/>
			
				<linearGradient id="SVGID_00000052796642529595451230000017481010515020789416_" gradientUnits="userSpaceOnUse" x1="223.7069" y1="-115.2849" x2="260.624" y2="-125.9801" gradientTransform="matrix(1 0 0 1 -215.2742 151.0198)">
				<stop  offset="0" style="stop-color:#F7B261"/>
				<stop  offset="0.244" style="stop-color:#F9CD63"/>
				<stop  offset="0.5006" style="stop-color:#FBE164"/>
				<stop  offset="0.7543" style="stop-color:#FCEE65"/>
				<stop  offset="1" style="stop-color:#FCF265"/>
			</linearGradient>
			<polygon style="fill:url(#SVGID_00000052796642529595451230000017481010515020789416_);" points="28.2,34 37.5,28.8 37.5,28.7 
				37.5,23.3 18.5,34 			"/>
			<polygon class="st6" points="28.2,34 37.5,28.8 37.5,28.7 37.5,23.3 18.5,34 			"/>
		</g>
		<path class="st8" d="M33.6,14.7h-8.9h-0.2h-1h-0.2h-8.9c-2.1,0-3.8,1.4-3.8,3.1v0.9v0.2v3.7v0.2v3.8v0.2v3.3v0.2v0.9
			c0,1.7,1.7,3.1,3.8,3.1h8.9h0.2h1h0.2h8.9c2.1,0,3.8-1.4,3.8-3.1v-0.9v-0.2v-3.3v-0.2v-3.8v-0.2v-3.7v-0.2v-0.9
			C37.5,16.1,35.7,14.7,33.6,14.7z M10.7,17.8c0-1.6,1.6-2.8,3.6-2.8h8.9v0.9c0,0-0.1,0-0.1,0c-0.1,0-0.3,0-0.4,0.1
			c-0.1,0-0.1,0-0.2,0.1c-0.1,0-0.2,0.1-0.3,0.1c0,0-0.1,0-0.1,0.1c-0.2,0.1-0.3,0.1-0.4,0.2c-0.1,0-0.1,0.1-0.2,0.1
			c-0.1,0.1-0.2,0.1-0.3,0.2c0,0-0.1,0.1-0.1,0.1c-0.1,0.1-0.2,0.1-0.3,0.2l0,0c-0.1,0.1-0.2,0.1-0.3,0.2l0,0
			c-0.1,0.1-0.2,0.2-0.2,0.2l0,0c-0.2,0.2-0.3,0.4-0.4,0.6c0,0,0,0.1,0,0.1l0,0c0,0.1-0.1,0.1-0.1,0.2c0,0,0,0.1-0.1,0.1l0,0.1h-8.8
			V17.8z M10.7,18.9h8.7c0,0,0,0.1,0,0.1c0,0.1-0.1,0.2-0.1,0.4c0,0,0,0.1,0,0.2c0,0.2,0,0.3,0,0.5c0,0,0,0,0,0c0,0,0,0,0,0
			c0,0,0,0,0,0c0,0.8,0.3,1.6,0.8,2.3c0.1,0.1,0.1,0.2,0.2,0.3h-9.6V18.9z M10.7,22.8h9.7c0.1,0.1,0.1,0.3,0.2,0.4c0,0,0,0.1,0,0.1
			c0,0.1,0.1,0.2,0.1,0.4c0,0,0,0.1,0,0.1c0,0.2,0,0.3,0,0.5v0.6c0,0.2,0,0.3,0,0.5c0,0.1,0,0.1,0,0.2c0,0.1,0,0.2-0.1,0.3
			c0,0.1,0,0.1-0.1,0.2c0,0.1-0.1,0.2-0.1,0.3c0,0.1-0.1,0.1-0.1,0.2c0,0,0,0.1-0.1,0.1h-9.6V22.8z M10.7,26.8h9.4c0,0,0,0,0,0
			c-0.5,0.7-0.8,1.5-0.8,2.3c0,0,0,0,0,0c0,0,0,0,0,0c0,0.2,0,0.3,0,0.4c0,0,0,0,0,0.1c0,0.1,0,0.3,0.1,0.4c0,0,0,0,0,0h-8.7V26.8z
			 M23.2,34h-8.9c-2,0-3.6-1.3-3.6-2.8v-0.9h8.8c0,0,0,0.1,0,0.1c0,0.1,0.1,0.2,0.1,0.3c0,0.1,0.1,0.1,0.1,0.2
			c0.1,0.1,0.1,0.2,0.2,0.3c0,0.1,0.1,0.1,0.1,0.2c0,0.1,0.1,0.1,0.2,0.2c0,0.1,0.1,0.1,0.2,0.2c0.1,0.1,0.2,0.2,0.3,0.3
			c0,0,0.1,0.1,0.1,0.1c0.1,0.1,0.2,0.2,0.3,0.2c0,0,0.1,0.1,0.1,0.1c0.3,0.2,0.6,0.4,1,0.5c0,0,0,0,0,0c0.3,0.1,0.7,0.2,1,0.3V34z
			 M37.2,31.2c0,1.6-1.6,2.8-3.6,2.8h-8.9v-0.8c0.2,0,0.4-0.1,0.7-0.1c1.5-0.4,2.7-1.4,3.1-2.8h8.7V31.2z M37.2,30.1h-8.9h0l0,0.1
			c-0.4,1.3-1.6,2.3-3.1,2.7C25,33,24.8,33,24.6,33l-0.1,0v1h-1v-1v0l0,0l-0.2,0c0,0-0.1,0-0.1,0l0,0c-0.1,0-0.2,0-0.3,0l0,0
			c0,0-0.1,0-0.1,0c-0.4-0.1-0.7-0.2-1-0.4c0,0,0,0-0.1,0c-0.1-0.1-0.2-0.1-0.4-0.2c0,0-0.1,0-0.1-0.1c-0.1-0.1-0.2-0.2-0.4-0.3
			c0,0-0.1-0.1-0.1-0.1c-0.1-0.1-0.1-0.1-0.2-0.2c0-0.1-0.1-0.1-0.1-0.2c-0.1-0.1-0.1-0.2-0.2-0.2c-0.1-0.1-0.1-0.2-0.2-0.3
			c0-0.1-0.1-0.1-0.1-0.2c0-0.1-0.1-0.1-0.1-0.2c0-0.1-0.1-0.2-0.1-0.3l0-0.1c-0.1-0.2-0.1-0.3-0.1-0.5c0,0,0,0,0-0.1
			c0-0.2,0-0.3,0-0.5c0-0.8,0.3-1.5,0.8-2.2c0,0,0,0,0-0.1c0,0,0.1-0.1,0.1-0.1h0l0-0.1c0,0,0,0,0,0l0.1-0.2h0
			c0-0.1,0.1-0.1,0.1-0.2c0-0.1,0.1-0.2,0.1-0.3c0-0.1,0.1-0.1,0.1-0.2c0-0.1,0.1-0.2,0.1-0.3c0-0.1,0-0.1,0-0.2c0-0.2,0-0.4,0-0.5
			v0v-0.6c0-0.2,0-0.3,0-0.5c0-0.1,0-0.1,0-0.2c0-0.1,0-0.2-0.1-0.3c0-0.1,0-0.1-0.1-0.2c0-0.1-0.1-0.2-0.1-0.3h0l-0.1-0.2
			c0,0,0,0,0,0l0,0c0,0,0,0,0,0l0,0h0c-0.1-0.1-0.2-0.3-0.3-0.4c-0.5-0.6-0.8-1.4-0.8-2.2c0,0,0,0,0,0c0-0.2,0-0.3,0-0.5
			c0,0,0-0.1,0-0.1c0-0.2,0.1-0.3,0.1-0.5c0.3-0.8,0.9-1.5,1.6-2c0.1-0.1,0.2-0.1,0.2-0.1c0.1,0,0.1-0.1,0.2-0.1
			c0.1-0.1,0.2-0.1,0.4-0.2c0.1,0,0.1,0,0.2-0.1c0.1,0,0.2-0.1,0.3-0.1c0.1,0,0.1,0,0.2,0c0.1,0,0.3-0.1,0.4-0.1c0,0,0.1,0,0.1,0
			l0.1,0v0V15h1v1.1v0l0.1,0c0,0,0,0,0,0c0.2,0,0.3,0.1,0.5,0.1c0,0,0.1,0,0.1,0c0.2,0,0.3,0.1,0.4,0.1c0,0,0,0,0.1,0
			c0.2,0.1,0.3,0.1,0.5,0.2c0,0,0.1,0,0.1,0.1c0.1,0.1,0.3,0.1,0.4,0.2c0.7,0.4,1.2,1,1.5,1.7c0,0,0,0,0,0c0,0.1,0.1,0.2,0.1,0.2
			c0.1,0.2,0.1,0.3,0.1,0.5c0,0,0,0.1,0,0.1c0,0.2,0,0.3,0,0.5c0,0,0,0,0,0c0,0.8-0.3,1.5-0.8,2.2c-0.1,0.1-0.2,0.3-0.3,0.4h0l0,0
			c0,0,0,0,0,0l-0.1,0.2h0c0,0.1-0.1,0.2-0.1,0.3c0,0,0,0.1,0,0.1c0,0.1-0.1,0.2-0.1,0.4c0,0,0,0.1,0,0.1c0,0.2,0,0.3,0,0.5v0.6v0
			c0,0.7,0.2,1.3,0.6,1.9l0,0.1h9.6V30.1z M37.2,26.6h-9.5c-0.3-0.5-0.5-1.1-0.5-1.7v-0.6c0-0.2,0-0.3,0-0.5c0,0,0-0.1,0-0.1
			c0-0.1,0.1-0.2,0.1-0.4c0,0,0-0.1,0-0.1c0-0.1,0.1-0.3,0.2-0.4h9.6V26.6z M37.2,22.6h-9.5c0.1-0.1,0.1-0.2,0.2-0.3
			c0.5-0.7,0.8-1.5,0.8-2.3c0,0,0,0,0,0c0,0,0,0,0,0c0,0,0,0,0,0c0-0.2,0-0.3,0-0.5c0,0,0-0.1,0-0.1c0-0.1-0.1-0.3-0.1-0.4
			c0,0,0-0.1,0-0.1h8.7V22.6z M28.5,18.6C28.5,18.6,28.5,18.6,28.5,18.6L28.5,18.6C28.4,18.6,28.4,18.6,28.5,18.6
			c0-0.1-0.1-0.1-0.1-0.1c0,0,0,0,0-0.1c0-0.1-0.1-0.1-0.1-0.2l0,0c0,0,0,0,0-0.1c-0.1-0.1-0.1-0.2-0.2-0.3l0-0.1
			c-0.1-0.1-0.1-0.2-0.2-0.2l-0.1-0.1c-0.1-0.1-0.1-0.1-0.2-0.2l-0.1-0.1c-0.1-0.1-0.1-0.1-0.2-0.2c0,0,0,0,0,0c0,0,0,0,0,0
			l-0.1-0.1c-0.1,0-0.1-0.1-0.2-0.1c0,0,0,0-0.1,0c0,0,0,0,0,0l0,0c0,0-0.1,0-0.1,0c-0.1-0.1-0.2-0.1-0.3-0.2c0,0-0.1,0-0.1-0.1
			c-0.2-0.1-0.3-0.1-0.5-0.2c0,0-0.1,0-0.1,0c-0.1,0-0.3-0.1-0.4-0.1c0,0-0.1,0-0.1,0c-0.2,0-0.3-0.1-0.5-0.1V15h8.9
			c2,0,3.6,1.3,3.6,2.8v0.9H28.5z"/>
		<path class="st9" d="M33.8,14.5h-8.9h-0.2h-1h-0.2h-8.9c-2.1,0-3.8,1.4-3.8,3.1v0.9v0.2v3.7v0.2v3.8v0.2v3.3v0.2V31
			c0,1.7,1.7,3.1,3.8,3.1h8.9h0.2h1h0.2h8.9c2.1,0,3.8-1.4,3.8-3.1v-0.9v-0.2v-3.3v-0.2v-3.8v-0.2v-3.7v-0.2v-0.9
			C37.7,15.9,35.9,14.5,33.8,14.5z M10.9,17.6c0-1.6,1.6-2.8,3.6-2.8h8.9v0.9c0,0-0.1,0-0.1,0c-0.1,0-0.3,0-0.4,0.1
			c-0.1,0-0.1,0-0.2,0.1c-0.1,0-0.2,0.1-0.3,0.1c0,0-0.1,0-0.1,0.1c-0.2,0.1-0.3,0.1-0.4,0.2c-0.1,0-0.1,0.1-0.2,0.1
			c-0.1,0.1-0.2,0.1-0.3,0.2c0,0-0.1,0.1-0.1,0.1c-0.1,0.1-0.2,0.1-0.3,0.2l0,0c-0.1,0.1-0.2,0.1-0.3,0.2l0,0
			c-0.1,0.1-0.2,0.2-0.2,0.2l0,0c-0.2,0.2-0.3,0.4-0.4,0.6c0,0,0,0.1,0,0.1l0,0c0,0.1-0.1,0.1-0.1,0.2c0,0,0,0.1-0.1,0.1l0,0.1h-8.8
			V17.6z M10.9,18.7h8.7c0,0,0,0.1,0,0.1c0,0.1-0.1,0.2-0.1,0.4c0,0,0,0.1,0,0.2c0,0.2,0,0.3,0,0.5c0,0,0,0,0,0c0,0,0,0,0,0
			c0,0,0,0,0,0c0,0.8,0.3,1.6,0.8,2.3c0.1,0.1,0.1,0.2,0.2,0.3h-9.6V18.7z M10.9,22.6h9.7c0.1,0.1,0.1,0.3,0.2,0.4c0,0,0,0.1,0,0.1
			c0,0.1,0.1,0.2,0.1,0.4c0,0,0,0.1,0,0.1c0,0.2,0,0.3,0,0.5v0.6c0,0.2,0,0.3,0,0.5c0,0.1,0,0.1,0,0.2c0,0.1,0,0.2-0.1,0.3
			c0,0.1,0,0.1-0.1,0.2c0,0.1-0.1,0.2-0.1,0.3c0,0.1-0.1,0.1-0.1,0.2c0,0,0,0.1-0.1,0.1h-9.6V22.6z M10.9,26.6h9.4c0,0,0,0,0,0
			c-0.5,0.7-0.8,1.5-0.8,2.3c0,0,0,0,0,0s0,0,0,0c0,0.2,0,0.3,0,0.4c0,0,0,0,0,0.1c0,0.1,0,0.3,0.1,0.4c0,0,0,0,0,0h-8.7V26.6z
			 M23.4,33.8h-8.9c-2,0-3.6-1.3-3.6-2.8v-0.9h8.8c0,0,0,0.1,0,0.1c0,0.1,0.1,0.2,0.1,0.3c0,0.1,0.1,0.1,0.1,0.2
			c0.1,0.1,0.1,0.2,0.2,0.3c0,0.1,0.1,0.1,0.1,0.2c0,0.1,0.1,0.1,0.2,0.2c0,0.1,0.1,0.1,0.2,0.2c0.1,0.1,0.2,0.2,0.3,0.3
			c0,0,0.1,0.1,0.1,0.1c0.1,0.1,0.2,0.2,0.3,0.2c0,0,0.1,0.1,0.1,0.1c0.3,0.2,0.6,0.4,1,0.5c0,0,0,0,0,0c0.3,0.1,0.7,0.2,1,0.3V33.8
			z M37.4,31c0,1.6-1.6,2.8-3.6,2.8h-8.9v-0.8c0.2,0,0.4-0.1,0.7-0.1c1.5-0.4,2.7-1.4,3.1-2.8h8.7V31z M37.4,29.9h-8.9l0,0l0,0.1
			c-0.4,1.3-1.6,2.3-3.1,2.7c-0.2,0.1-0.4,0.1-0.7,0.1l-0.1,0v1h-1v-1v0l0,0l-0.2,0c0,0-0.1,0-0.1,0l0,0c-0.1,0-0.2,0-0.3,0l0,0
			c0,0-0.1,0-0.1,0c-0.4-0.1-0.7-0.2-1-0.4c0,0,0,0-0.1,0c-0.1-0.1-0.2-0.1-0.4-0.2c0,0-0.1,0-0.1-0.1c-0.1-0.1-0.2-0.2-0.4-0.3
			c0,0-0.1-0.1-0.1-0.1c-0.1-0.1-0.1-0.1-0.2-0.2c0-0.1-0.1-0.1-0.1-0.2c-0.1-0.1-0.1-0.2-0.2-0.2c-0.1-0.1-0.1-0.2-0.2-0.3
			c0-0.1-0.1-0.1-0.1-0.2c0-0.1-0.1-0.1-0.1-0.2c-0.1-0.1-0.1-0.2-0.1-0.3l0-0.1c-0.1-0.2-0.1-0.3-0.1-0.5c0,0,0,0,0-0.1
			c0-0.2,0-0.3,0-0.5c0-0.8,0.3-1.5,0.8-2.2c0,0,0,0,0-0.1c0,0,0.1-0.1,0.1-0.1h0l0-0.1c0,0,0,0,0,0l0.1-0.2h0
			c0-0.1,0.1-0.1,0.1-0.2c0-0.1,0.1-0.2,0.1-0.3c0-0.1,0.1-0.1,0.1-0.2c0-0.1,0.1-0.2,0.1-0.3c0-0.1,0-0.1,0-0.2c0-0.2,0-0.4,0-0.5
			v0v-0.6c0-0.2,0-0.3,0-0.5c0-0.1,0-0.1,0-0.2c0-0.1,0-0.2-0.1-0.3c0-0.1,0-0.1-0.1-0.2c0-0.1-0.1-0.2-0.1-0.3h0l-0.1-0.2
			c0,0,0,0,0,0l0,0c0,0,0,0,0,0l0,0h0c-0.1-0.1-0.2-0.3-0.3-0.4c-0.5-0.6-0.8-1.4-0.8-2.2c0,0,0,0,0,0c0-0.2,0-0.3,0-0.5
			c0,0,0-0.1,0-0.1c0-0.2,0.1-0.3,0.1-0.5c0.3-0.8,0.9-1.5,1.6-2c0.1-0.1,0.2-0.1,0.2-0.1c0.1,0,0.1-0.1,0.2-0.1
			c0.1-0.1,0.2-0.1,0.4-0.2c0.1,0,0.1,0,0.2-0.1c0.1,0,0.2-0.1,0.3-0.1c0.1,0,0.1,0,0.2,0c0.1,0,0.3-0.1,0.4-0.1c0,0,0.1,0,0.1,0
			l0.1,0v0v-1.1h1v1.1v0l0.1,0c0,0,0,0,0,0c0.2,0,0.3,0.1,0.5,0.1c0,0,0.1,0,0.1,0c0.2,0,0.3,0.1,0.4,0.1c0,0,0,0,0.1,0
			c0.2,0.1,0.3,0.1,0.5,0.2c0,0,0.1,0,0.1,0.1c0.1,0.1,0.3,0.1,0.4,0.2c0.7,0.4,1.2,1,1.5,1.7c0,0,0,0,0,0c0,0.1,0.1,0.2,0.1,0.2
			c0.1,0.2,0.1,0.3,0.1,0.5c0,0,0,0.1,0,0.1c0,0.2,0,0.3,0,0.5c0,0,0,0,0,0c0,0.8-0.3,1.5-0.8,2.2c-0.1,0.1-0.2,0.3-0.3,0.4h0l0,0
			c0,0,0,0,0,0l-0.1,0.2h0c0,0.1-0.1,0.2-0.1,0.3c0,0,0,0.1,0,0.1c0,0.1-0.1,0.2-0.1,0.4c0,0,0,0.1,0,0.1c0,0.2,0,0.3,0,0.5v0.6v0
			c0,0.7,0.2,1.3,0.6,1.9l0,0.1h9.6V29.9z M37.4,26.4h-9.5c-0.3-0.5-0.5-1.1-0.5-1.7v-0.6c0-0.2,0-0.3,0-0.5c0,0,0-0.1,0-0.1
			c0-0.1,0.1-0.2,0.1-0.4c0,0,0-0.1,0-0.1c0-0.1,0.1-0.3,0.2-0.4h9.6V26.4z M37.4,22.4h-9.5c0.1-0.1,0.1-0.2,0.2-0.3
			c0.5-0.7,0.8-1.5,0.8-2.3c0,0,0,0,0,0c0,0,0,0,0,0c0,0,0,0,0,0c0-0.2,0-0.3,0-0.5c0,0,0-0.1,0-0.1c0-0.1-0.1-0.3-0.1-0.4
			c0,0,0-0.1,0-0.1h8.7V22.4z M28.7,18.5C28.7,18.5,28.7,18.5,28.7,18.5L28.7,18.5C28.6,18.4,28.6,18.4,28.7,18.5
			c0-0.1-0.1-0.1-0.1-0.1c0,0,0,0,0-0.1c0-0.1-0.1-0.1-0.1-0.2l0,0c0,0,0,0,0-0.1c-0.1-0.1-0.1-0.2-0.2-0.3l0-0.1
			c-0.1-0.1-0.1-0.2-0.2-0.2l-0.1-0.1c-0.1-0.1-0.1-0.1-0.2-0.2L27.7,17c-0.1-0.1-0.1-0.1-0.2-0.2c0,0,0,0,0,0c0,0,0,0,0,0l-0.1-0.1
			c-0.1,0-0.1-0.1-0.2-0.1c0,0,0,0-0.1,0c0,0,0,0,0,0l0,0c0,0-0.1,0-0.1,0c-0.1-0.1-0.2-0.1-0.3-0.2c0,0-0.1,0-0.1-0.1
			c-0.2-0.1-0.3-0.1-0.5-0.2c0,0-0.1,0-0.1,0c-0.1,0-0.3-0.1-0.4-0.1c0,0-0.1,0-0.1,0c-0.2,0-0.3-0.1-0.5-0.1v-0.9h8.9
			c2,0,3.6,1.3,3.6,2.8v0.9H28.7z"/>
		<path class="st10" d="M27.9,34.1h-7.5c-5.4,0-9.8-4.4-9.8-9.8l0,0c0-5.4,4.4-9.8,9.8-9.8h7.5c5.4,0,9.8,4.4,9.8,9.8l0,0
			C37.7,29.7,33.3,34.1,27.9,34.1z"/>
		<path class="st11" d="M37.4,34.4c0,0.1-0.1,0.1-0.2,0.1l-26.6,0c-0.9,0-1.6-0.6-1.6-1.6l0-17.7c0-1.1,0.8-1.8,1.7-1.8h-0.3
			c-0.9,0-1.6,0.8-1.6,1.8v17.7c0,1,0.7,1.8,1.6,1.8H37C37.4,34.6,37.4,34.5,37.4,34.4l0.7-1L37.4,34.4z"/>
		<path class="st1" d="M37.6,34.7c-0.1,0.1-0.2,0.2-0.4,0.2h-27c-0.9,0-1.6-0.8-1.6-1.8v0.2c0,1,0.7,1.8,1.6,1.8h27
			c0.1,0,0.3-0.1,0.4-0.2l3.5-5.1c0.1-0.1,0.2-0.3,0.2-0.4v-0.2c0,0.2-0.1,0.3-0.2,0.4L37.6,34.7z"/>
	</g>
	<g>
		<path class="st12" d="M21.8,38.5h-0.9c-0.1-0.6-0.4-0.9-1.1-0.9c-0.3,0-0.6,0.1-0.7,0.2s-0.3,0.3-0.3,0.5c0,0.2,0.1,0.4,0.2,0.4
			s0.4,0.2,0.9,0.3c0.1,0,0.2,0.1,0.3,0.1c0.6,0.1,1,0.3,1.2,0.4c0.5,0.2,0.7,0.6,0.7,1.2c0,0.2,0,0.4-0.1,0.6s-0.2,0.3-0.3,0.5
			s-0.3,0.2-0.5,0.3s-0.4,0.1-0.6,0.2c-0.2,0-0.4,0.1-0.6,0.1c-0.6,0-1.2-0.2-1.6-0.5c-0.4-0.3-0.6-0.8-0.6-1.4h0.9
			c0,0.4,0.1,0.7,0.4,0.8c0.2,0.2,0.6,0.3,1,0.3c0.3,0,0.6-0.1,0.8-0.2c0.2-0.1,0.3-0.3,0.3-0.6c0-0.2-0.1-0.3-0.2-0.4
			c-0.1-0.1-0.2-0.2-0.3-0.2c-0.1,0-0.3-0.1-0.6-0.2c0,0-0.1,0-0.1,0c-0.6-0.2-1.1-0.3-1.3-0.4c-0.4-0.2-0.6-0.6-0.7-1
			c0,0,0-0.1,0-0.1c0-0.5,0.2-0.8,0.5-1.1c0.3-0.3,0.8-0.4,1.4-0.4c0.6,0,1,0.1,1.4,0.4S21.8,38,21.8,38.5z"/>
		<path class="st12" d="M23.7,37v5.2h-0.9V37H23.7z"/>
		<path class="st12" d="M30.2,37v5.2h-0.9v-4l-1.4,4h-0.7l-1.5-4v4h-0.9V37h1.3l1.4,4l1.4-4H30.2z"/>
	</g>
</g>
</svg>
