<?xml version="1.0" encoding="utf-8"?>
<!-- Generator: Adobe Illustrator 26.0.2, SVG Export Plug-In . SVG Version: 6.00 Build 0)  -->
<svg version="1.1" id="Слой_1" xmlns="http://www.w3.org/2000/svg" xmlns:xlink="http://www.w3.org/1999/xlink" x="0px" y="0px"
	 viewBox="0 0 50 50" style="enable-background:new 0 0 50 50;" xml:space="preserve">
<style type="text/css">
	.st0{fill:#FFFFFF;}
	.st1{fill:#F26822;}
	.st2{fill:#4D4D4D;}
</style>
<g>
	<path class="st0" d="M50,25c0,13.8-11.2,25-25,25S0,38.8,0,25S11.2,0,25,0S50,11.2,50,25z"/>
	<path id="_149931032" class="st1" d="M25,0C11.2,0,0,11.2,0,25c0,2.8,0.4,5.4,1.3,7.9h7.5v-21L25,28.1l16.2-16.2v21h7.5
		c0.8-2.5,1.3-5.1,1.3-7.9C50,11.2,38.8,0,25,0L25,0z"/>
	<path id="_149931160" class="st2" d="M21.3,31.8l-7.1-7.1V38H8.8l-5.1,0C8,45.2,16,50,25,50s17-4.8,21.4-12H35.8V24.8l-7.1,7.1
		L25,35.6L21.3,31.8L21.3,31.8L21.3,31.8z"/>
</g>
</svg>
